# Blender v3.2.2 OBJ File: 'TerrainMid_Steep2.blend'
# www.blender.org
mtllib TerrainMid_Steep2.mtl
o Plane
v -1.000000 0.000000 1.000000
v 1.000000 1.000000 1.000000
v -1.000000 0.000000 -1.000000
v 1.000000 1.000000 -1.000000
v 0.000000 1.000000 1.000000
v 0.000000 1.000000 -1.000000
v -1.000000 0.000000 0.000000
v 1.000000 1.000000 0.000000
v 0.000000 1.000000 0.000000
vt 0.000000 0.500000
vt 0.500000 0.500000
vt 0.500000 1.000000
vt 0.000000 1.000000
vt 1.000000 0.500000
vt 1.000000 1.000000
vt 0.500000 0.000000
vt 1.000000 0.000000
vt 0.000000 0.000000
vn -0.7071 0.7071 0.0000
vn 0.0000 1.0000 0.0000
usemtl None
s off
f 7/1/1 9/2/1 6/3/1 3/4/1
f 6/3/2 9/2/2 8/5/2 4/6/2
f 9/2/2 5/7/2 2/8/2 8/5/2
f 1/9/1 5/7/1 9/2/1 7/1/1
